<svg width="47" height="47" viewBox="0 0 47 47" fill="none" xmlns="http://www.w3.org/2000/svg">
<path d="M43.9055 41.6188C42.4081 40.1695 40.786 38.8257 39.2214 37.4435C37.5417 34.3624 34.8253 32.222 32.4641 29.7648C33.0304 29.0737 33.5487 28.3346 34.0095 27.5667C34.1535 27.3172 34.3262 27.0676 34.4606 26.8084L34.8445 26.0118C34.9693 25.743 35.1133 25.4839 35.2189 25.2151L35.526 24.3896C35.622 24.1113 35.7372 23.8425 35.8236 23.5546L36.0539 22.7003L36.2747 21.846L36.4283 20.9246C36.6202 19.9743 36.2939 18.8513 36.0827 18.4578C35.6412 17.6995 35.2285 18.6306 34.8157 20.0511C34.0479 22.3836 32.8865 24.6776 31.2643 26.7317C30.4293 27.7299 29.527 28.7089 28.4808 29.5248C27.9817 29.9663 27.4153 30.3215 26.8682 30.7054C26.5995 30.907 26.2923 31.0414 26.0044 31.2141C25.7164 31.3773 25.4285 31.5597 25.1213 31.6844C23.6912 32.4235 22.117 32.8459 20.5429 33.0666C20.1493 33.105 19.7558 33.1914 19.3527 33.1818L18.7576 33.201L18.46 33.2106H18.3064H18.2296H18.1912L16.9243 33.1146L16.5979 33.0954C16.4923 33.0858 16.4059 33.0666 16.31 33.0474L15.7532 32.9418L15.1965 32.8459C15.0142 32.8075 14.8126 32.7403 14.6302 32.6923C14.2559 32.5771 13.8624 32.5003 13.4976 32.3467L12.3938 31.9148L11.338 31.3773C9.95579 30.619 8.69839 29.6496 7.60417 28.5266C6.51955 27.3939 5.63649 26.079 4.9454 24.6776L4.69584 24.1497L4.57106 23.8809L4.47508 23.6026L4.08154 22.4987L3.79359 21.3661C3.736 21.1742 3.7072 20.9822 3.67841 20.7902L3.59202 20.2143L3.50564 19.6384L3.47684 19.0529L3.44805 18.4674L3.42885 18.1698V18.1506V18.1027L3.43845 17.9395L3.49604 16.6245C3.53443 16.231 3.60162 15.8854 3.64961 15.5207C3.90877 14.0233 4.39829 12.478 5.09898 11.0766C5.88605 9.72322 6.88429 8.51381 8.0169 7.45799C11.6259 4.07934 16.9147 2.74515 21.6467 3.93536L22.5297 4.15612L23.384 4.46327L23.8159 4.61685C23.9599 4.67444 24.0943 4.74163 24.2287 4.80882L25.0541 5.19276C26.1196 5.78786 27.1658 6.44055 28.068 7.26602C29.0087 8.05309 29.8054 9.00333 30.5252 9.99197C30.8516 10.5103 31.2259 11.0094 31.4851 11.5661C31.6291 11.8445 31.7826 12.1132 31.9074 12.3916L32.2626 13.2458C33.3472 15.847 33.5871 18.3138 34.5182 18.1027C34.9117 17.9971 35.2285 17.3828 35.43 16.3269C35.478 15.8086 35.5068 15.1751 35.4588 14.4648C35.4108 14.1097 35.3533 13.745 35.2765 13.3514C35.2381 13.1595 35.2093 12.9579 35.1517 12.7563C35.0845 12.5548 35.0269 12.3532 34.9597 12.1516C34.5182 10.6639 33.7791 9.27209 32.9536 7.93791C32.4929 7.30441 32.0706 6.64212 31.5331 6.06621C31.2643 5.77826 31.034 5.45191 30.7364 5.19276L29.8821 4.37689C28.6919 3.34985 27.3865 2.41881 25.9468 1.74692C25.2461 1.36298 24.4878 1.12302 23.7487 0.844663C23.3744 0.710284 22.9809 0.633497 22.6065 0.527914C22.2226 0.43193 21.8483 0.316748 21.4259 0.268756L20.4277 0.134378L19.9382 0.0671891L19.5062 0.0479922L18.6328 0.00959844L18.412 0H18.3064H18.2488H18.1625H18.1529H18.1337H18.1049L17.6249 0.0287953C16.9914 0.0767875 16.3483 0.0671891 15.7244 0.201567C15.1005 0.30715 14.4671 0.383938 13.8528 0.575906C11.386 1.1998 9.07273 2.36122 7.09545 3.94496C5.12777 5.5287 3.47684 7.50598 2.33463 9.75201C2.07547 10.3279 1.77792 10.8846 1.56675 11.4701L1.2596 12.3628L1.10603 12.8043C1.05803 12.9579 1.02924 13.1115 0.990845 13.2554C0.856467 13.8697 0.664498 14.4552 0.597309 15.1079C0.510923 15.7414 0.395742 16.4133 0.40534 16.97C0.117387 19.1489 0.270962 21.4909 0.885262 23.6985C1.49956 25.9158 2.57459 28.0178 4.02395 29.8415C5.47332 31.6652 7.28742 33.2106 9.34149 34.3528L10.9252 35.1303C11.4723 35.3414 12.029 35.543 12.5762 35.7542C13.1425 35.9174 13.7184 36.0613 14.2847 36.2053C14.8798 36.3301 15.5037 36.4069 16.118 36.4933L16.3483 36.5221L16.5499 36.5317L16.9434 36.5509L17.7401 36.5892L17.9417 36.5988L18.0377 36.6084H18.1625H18.1912H18.2488L18.6904 36.5892L19.5734 36.5413L20.0149 36.5125C20.1589 36.4933 20.3029 36.4741 20.4565 36.4453L21.3299 36.3109C21.9154 36.2437 22.4817 36.0613 23.0577 35.9174C25.3325 35.2839 27.4825 34.2088 29.3446 32.7787C29.8054 32.4235 30.2469 32.0492 30.6788 31.6556C30.9476 32.4043 31.3507 33.0762 31.8594 33.6809C33.8847 36.0997 35.8044 38.6241 38.2712 40.6398C38.5207 40.9373 38.7703 41.2445 39.0295 41.542C40.6708 43.4137 42.3889 45.199 44.4142 46.6676C44.9901 47.0803 45.71 47.1859 46.2955 46.5332C46.8234 45.9381 46.881 45.1703 46.4394 44.5943C45.6332 43.5673 44.8365 42.5211 43.9055 41.6188Z" fill="#F0571B"/>
<path d="M25.0349 20.0703C25.1405 20.0799 25.3037 19.744 25.3517 19.5136C25.4573 19.0433 25.3229 18.6498 25.1213 18.3522C24.4686 17.3636 23.672 16.9316 22.8657 16.8165C21.8962 16.6821 20.9268 16.4997 19.9574 16.4037C20.2165 14.7048 19.9286 12.9867 20.0917 11.2782C20.1013 11.1726 19.7654 11.0094 19.535 10.9614C19.0647 10.8558 18.6712 10.9902 18.3736 11.1918C17.385 11.8445 16.9531 12.6411 16.8379 13.4474C16.7035 14.4169 16.5307 15.3767 16.4251 16.3461C16.3867 16.3365 16.3388 16.3365 16.3004 16.3269C14.7646 16.1638 13.2289 16.1158 11.7027 16.5093C11.2708 16.6245 10.906 17.066 10.9444 17.9299C10.9732 18.7265 11.2804 19.3121 11.7315 19.3984C12.5282 19.5616 13.3344 19.744 14.1407 19.7248C14.899 19.7056 15.6573 19.6288 16.4155 19.5424C16.3963 19.696 16.3675 19.84 16.3579 19.9935C16.1948 21.5293 16.1468 23.065 16.5403 24.5912C16.6555 25.0231 17.097 25.3879 17.9609 25.3495C18.7576 25.3207 19.3431 25.0135 19.4294 24.5624C19.5926 23.7657 19.775 22.9595 19.7558 22.1532C19.7366 21.3949 19.6598 20.627 19.5734 19.8688C21.3875 20.2239 23.2208 19.888 25.0349 20.0703Z" fill="#F0571B"/>
</svg>
