<svg width="25.989" height="25.983" version="1.1" viewBox="0 0 25.989 25.983" xmlns="http://www.w3.org/2000/svg">
 <path d="m20.479 25.983h-15c-0.83451-2e-4 -1.658-0.1909-2.4075-0.5577s-1.4055-0.8999-1.9177-1.5588c-0.5122-0.6588-0.86718-1.4259-1.0378-2.2428-0.17067-0.8168-0.15252-1.6619 0.053066-2.4707l3.04-12.41c0.05476-0.22188 0.18385-0.4183 0.3658-0.55659 0.18195-0.13828 0.40577-0.21007 0.6342-0.20341h16.75c0.2206-0.010098 0.4383 0.053095 0.6192 0.17972 0.1809 0.12663 0.3148 0.30956 0.3808 0.52028l3.78 12.16c0.2584 0.8259 0.318 1.7012 0.1737 2.5545-0.1442 0.8533-0.4882 1.6604-1.0037 2.3555-0.5071 0.698-1.1738 1.2646-1.9444 1.6526-0.7706 0.3879-1.6229 0.5859-2.4856 0.5774zm-15.52-18-2.89 11.65c-0.12869 0.514-0.139 1.0505-0.03016 1.5691 0.10885 0.5185 0.33402 1.0056 0.65852 1.4245 0.32451 0.4189 0.73988 0.7586 1.2148 0.9936 0.47492 0.2349 0.99699 0.359 1.5268 0.3628h15c0.5442 9e-4 1.0809-0.1274 1.5659-0.3742 0.485-0.2469 0.9045-0.6053 1.2241-1.0458 0.3288-0.443 0.5482-0.9575 0.6403-1.5014 0.0921-0.544 0.0543-1.102-0.1103-1.6286l-3.52-11.45z" fill="#43423f"/>
 <g transform="translate(7.5999)" fill="none">
  <path d="M 9,14 C 8.73478,14 8.48043,13.8946 8.29289,13.7071 8.10536,13.5196 8,13.2652 8,13 V 5 C 8,4.20435 7.68393,3.44129 7.12132,2.87868 6.55871,2.31607 5.79565,2 5,2 4.20435,2 3.44129,2.31607 2.87868,2.87868 2.31607,3.44129 2,4.20435 2,5 v 8 C 2,13.2652 1.89464,13.5196 1.70711,13.7071 1.51957,13.8946 1.26522,14 1,14 0.734784,14 0.48043,13.8946 0.292893,13.7071 0.105357,13.5196 0,13.2652 0,13 V 5 C 0,3.67392 0.526784,2.40215 1.46447,1.46447 2.40215,0.526784 3.67392,0 5,0 6.32608,0 7.59785,0.526784 8.53553,1.46447 9.47322,2.40215 10,3.67392 10,5 v 8 C 10,13.2652 9.89464,13.5196 9.70711,13.7071 9.51957,13.8946 9.26522,14 9,14 Z" fill="#43423f"/>
 </g>
</svg>
