<svg width="16" height="16" viewBox="0 0 16 16" fill="none" xmlns="http://www.w3.org/2000/svg">
<path fill-rule="evenodd" clip-rule="evenodd" d="M12 0C12.5523 0 13 0.447715 13 1V2C14.6569 2 16 3.34315 16 5V13C16 14.6569 14.6569 16 13 16H3C1.34315 16 0 14.6569 0 13V5C0 3.34315 1.34315 2 3 2V1C3 0.447715 3.44772 0 4 0C4.55228 0 5 0.447715 5 1V2H11V1C11 0.447715 11.4477 0 12 0ZM14 8H2V13C2 13.5523 2.44772 14 3 14H13C13.5523 14 14 13.5523 14 13V8ZM13 4H3C2.44772 4 2 4.44772 2 5V6H14V5C14 4.44772 13.5523 4 13 4Z" fill="#43423F"/>
</svg>
