<svg width="20" height="14" viewBox="0 0 20 14" fill="none" xmlns="http://www.w3.org/2000/svg">
<path fill-rule="evenodd" clip-rule="evenodd" d="M15 0C17.7614 0 20 2.23858 20 5C20 7.76142 17.7614 10 15 10H7C5.34315 10 4 8.65685 4 7C4 5.34315 5.34315 4 7 4H15C15.5523 4 16 4.44772 16 5C16 5.55228 15.5523 6 15 6H7L6.88338 6.00673C6.38604 6.06449 6 6.48716 6 7C6 7.51284 6.38604 7.93551 6.88338 7.99327L7 8H15C16.6569 8 18 6.65685 18 5C18 3.34315 16.6569 2 15 2H7C4.23858 2 2 4.23858 2 7C2 9.68875 4.12231 11.8818 6.78311 11.9954L7 12H15C15.5523 12 16 12.4477 16 13C16 13.5523 15.5523 14 15 14H7C3.13401 14 0 10.866 0 7C0 3.13401 3.13401 0 7 0H15Z" fill="#AEACA0"/>
</svg>
