<?xml version="1.0" encoding="UTF-8" standalone="no"?>
<svg
   width="11.43337"
   height="11.43337"
   viewBox="0 0 11.43337 11.43337"
   fill="none"
   version="1.1"
   id="svg4"
   sodipodi:docname="cross.svg"
   inkscape:version="1.1 (c68e22c387, 2021-05-23)"
   xmlns:inkscape="http://www.inkscape.org/namespaces/inkscape"
   xmlns:sodipodi="http://sodipodi.sourceforge.net/DTD/sodipodi-0.dtd"
   xmlns="http://www.w3.org/2000/svg"
   xmlns:svg="http://www.w3.org/2000/svg">
  <defs
     id="defs8" />
  <sodipodi:namedview
     id="namedview6"
     pagecolor="#ffffff"
     bordercolor="#111111"
     borderopacity="1"
     inkscape:pageshadow="0"
     inkscape:pageopacity="0"
     inkscape:pagecheckerboard="1"
     showgrid="false"
     inkscape:snap-object-midpoints="true"
     inkscape:zoom="49.026071"
     inkscape:cx="5.0993277"
     inkscape:cy="6.1701865"
     inkscape:window-width="1920"
     inkscape:window-height="1017"
     inkscape:window-x="-8"
     inkscape:window-y="-8"
     inkscape:window-maximized="1"
     inkscape:current-layer="svg4" />
  <path
     id="path2"
     style="color:#000000;fill:#aeaca0;stroke-linecap:round;stroke-linejoin:round;-inkscape-stroke:none"
     d="M 1 0 A 1 1 0 0 0 0.29296875 0.29296875 A 1 1 0 0 0 0.29296875 1.7070312 L 4.3027344 5.7167969 L 0.29296875 9.7265625 A 1 1 0 0 0 0.29296875 11.140625 A 1 1 0 0 0 1.7070312 11.140625 L 5.7167969 7.1308594 L 9.7265625 11.140625 A 1 1 0 0 0 11.140625 11.140625 A 1 1 0 0 0 11.140625 9.7265625 L 7.1308594 5.7167969 L 11.140625 1.7070312 A 1 1 0 0 0 11.140625 0.29296875 A 1 1 0 0 0 10.433594 0 A 1 1 0 0 0 9.7265625 0.29296875 L 5.7167969 4.3027344 L 1.7070312 0.29296875 A 1 1 0 0 0 1 0 z " />
  <g
     style="fill:none"
     id="g19"
     transform="translate(-0.78333,-0.28333)" />
</svg>
