<svg width="24" height="23" viewBox="0 0 24 23" fill="none" xmlns="http://www.w3.org/2000/svg">
<path d="M4.53125 5.75V0.654297V0.103516C4.53125 0.046875 4.57812 0 4.63477 0H5.18555H15.9258C15.9434 0 15.959 0.00390625 15.9727 0.0117188L16.3496 0.167969C16.3652 0.173828 16.377 0.183594 16.3887 0.195312L18.9141 2.6875L19.0781 2.84961C19.0977 2.86914 19.1094 2.89648 19.1094 2.92383V3.1543V5.75391C19.1094 5.81055 19.0625 5.85742 19.0059 5.85742H17.9102C17.8535 5.85742 17.8066 5.81055 17.8066 5.75391V4.41016H15.4531H14.9023C14.8457 4.41016 14.7988 4.36328 14.7988 4.30664C14.7988 4.30273 14.7988 4.30078 14.7988 4.29688V3.75586V1.30664H5.83789V5.75C5.83789 5.80664 5.79102 5.85352 5.73438 5.85352H4.63281C4.57812 5.85352 4.53125 5.80664 4.53125 5.75ZM6.04688 13.252H17.9551C17.9629 13.252 17.9707 13.252 17.9785 13.2539C18.1406 13.2578 18.2969 13.291 18.4395 13.3496C18.5938 13.4141 18.7344 13.5078 18.8516 13.625C18.9668 13.7402 19.0605 13.8809 19.125 14.0352C19.1836 14.1777 19.2168 14.332 19.2207 14.4941C19.2227 14.502 19.2227 14.5098 19.2227 14.5176V16.3223H21.793C21.8008 16.3223 21.8066 16.3223 21.8145 16.3242C21.9258 16.3223 22.0352 16.2969 22.1348 16.2559C22.2461 16.209 22.3457 16.1406 22.4297 16.0566C22.5137 15.9727 22.582 15.873 22.6289 15.7617C22.6699 15.6621 22.6953 15.5527 22.6973 15.4395C22.6953 15.4336 22.6953 15.4258 22.6953 15.4199V8.50586C22.6953 8.49805 22.6953 8.49219 22.6973 8.48438C22.6953 8.37305 22.6699 8.26367 22.6289 8.16406C22.582 8.05469 22.5137 7.95312 22.4297 7.86914C22.3457 7.78516 22.2461 7.7168 22.1348 7.66992C22.0352 7.62695 21.9258 7.60352 21.8125 7.60156C21.8066 7.60352 21.7988 7.60352 21.793 7.60352H2.20898C2.20117 7.60352 2.19336 7.60352 2.1875 7.60156C2.07617 7.60352 1.9668 7.62891 1.86719 7.66992C1.75781 7.7168 1.65625 7.78516 1.57227 7.86914C1.48828 7.95312 1.41992 8.05273 1.37305 8.16406C1.33203 8.26367 1.30664 8.37305 1.30469 8.48633C1.30664 8.49219 1.30664 8.5 1.30664 8.50586V15.4219C1.30664 15.4297 1.30664 15.4375 1.30469 15.4434C1.30664 15.5547 1.33203 15.6641 1.37305 15.7637C1.41992 15.875 1.48828 15.9746 1.57227 16.0586C1.65625 16.1426 1.75781 16.2109 1.86719 16.2578C1.9668 16.3008 2.07617 16.3242 2.18945 16.3262C2.19531 16.3242 2.20312 16.3242 2.20898 16.3242H4.7793V14.5195C4.7793 14.5117 4.7793 14.5039 4.78125 14.4961C4.78516 14.334 4.81836 14.1777 4.87695 14.0371C4.9375 13.8887 5.02734 13.7539 5.13672 13.6406C5.14062 13.6348 5.14453 13.6289 5.15039 13.625C5.26562 13.5098 5.40625 13.416 5.56055 13.3516C5.70312 13.293 5.85742 13.2598 6.02148 13.2559C6.0293 13.252 6.03711 13.252 6.04688 13.252ZM19.2207 17.6309V21.0234C19.2207 21.0312 19.2207 21.0391 19.2188 21.0469C19.2148 21.209 19.1816 21.3652 19.123 21.5078C19.0586 21.6621 18.9648 21.8027 18.8477 21.9199C18.7324 22.0352 18.5918 22.1289 18.4375 22.1934C18.2949 22.252 18.1406 22.2852 17.9785 22.2891C17.9707 22.291 17.9629 22.291 17.9551 22.291H6.04688C6.03906 22.291 6.03125 22.2891 6.02344 22.2891C5.86133 22.2852 5.70703 22.252 5.56445 22.1934C5.41016 22.1289 5.27148 22.0352 5.1543 21.9199C5.03711 21.8027 4.94336 21.6641 4.87891 21.5078C4.82031 21.3652 4.78711 21.2109 4.7832 21.0488C4.78125 21.041 4.78125 21.0332 4.78125 21.0254V17.6309H2.20898C2.20117 17.6309 2.19336 17.6309 2.18555 17.6289C1.89453 17.625 1.61719 17.5664 1.36523 17.4629C1.09375 17.3516 0.851562 17.1875 0.648438 16.9844C0.445312 16.7812 0.28125 16.5391 0.169922 16.2676C0.0644531 16.0137 0.00585938 15.7383 0.00390625 15.4473C0 15.4375 0 15.4297 0 15.4219V8.50586C0 8.49805 0 8.49023 0.00195312 8.48242C0.00585938 8.19141 0.0644531 7.91602 0.167969 7.66211C0.279297 7.39062 0.443359 7.14844 0.646484 6.94531C0.849609 6.74219 1.0918 6.57812 1.36328 6.4668C1.61719 6.36133 1.89258 6.30273 2.18359 6.30078C2.19141 6.29883 2.19922 6.29883 2.20703 6.29883H21.7871C21.7949 6.29883 21.8027 6.29883 21.8105 6.30078C22.1016 6.30469 22.3789 6.36328 22.6309 6.4668C22.9023 6.57812 23.1445 6.74219 23.3477 6.94531C23.5508 7.14844 23.7148 7.39062 23.8262 7.66211C23.9316 7.91602 23.9902 8.19141 23.9922 8.48242C23.9941 8.49023 23.9941 8.49805 23.9941 8.50586V15.4219C23.9941 15.4297 23.9941 15.4375 23.9922 15.4453C23.9883 15.7363 23.9297 16.0117 23.8262 16.2656C23.7148 16.5371 23.5508 16.7793 23.3477 16.9824C23.1445 17.1855 22.9023 17.3496 22.6309 17.4609C22.377 17.5664 22.1016 17.625 21.8105 17.627C21.8027 17.6289 21.7949 17.6289 21.7871 17.6289H19.2207V17.6309ZM17.4746 3.09766L16.1074 1.74805V3.09766H17.4746ZM17.9141 14.5586H6.08594V20.9824H17.9141V14.5586Z" fill="#AEACA0"/>
</svg>
