<?xml version="1.0" encoding="UTF-8" standalone="no"?>
<svg
   width="38"
   height="38"
   viewBox="0 0 38 38"
   fill="none"
   version="1.1"
   id="svg4"
   sodipodi:docname="vk.svg"
   inkscape:version="1.1 (c68e22c387, 2021-05-23)"
   xmlns:inkscape="http://www.inkscape.org/namespaces/inkscape"
   xmlns:sodipodi="http://sodipodi.sourceforge.net/DTD/sodipodi-0.dtd"
   xmlns="http://www.w3.org/2000/svg"
   xmlns:svg="http://www.w3.org/2000/svg">
  <defs
     id="defs8" />
  <sodipodi:namedview
     id="namedview6"
     pagecolor="#ffffff"
     bordercolor="#111111"
     borderopacity="1"
     inkscape:pageshadow="0"
     inkscape:pageopacity="0"
     inkscape:pagecheckerboard="1"
     showgrid="false"
     height="38px"
     inkscape:zoom="7.1447368"
     inkscape:cx="-25.473296"
     inkscape:cy="-5.5285451"
     inkscape:window-width="1920"
     inkscape:window-height="1017"
     inkscape:window-x="-8"
     inkscape:window-y="-8"
     inkscape:window-maximized="1"
     inkscape:current-layer="svg4" />
  <path
     d="m 36.182514,11.294109 h -6.0515 c -0.247,0 -0.4893,0.06854 -0.7013,0.19833 -0.212,0.12979 -0.3856,0.31597 -0.5024,0.53872 0,0 -2.4135,4.549521 -3.1888,6.081891 -2.0856,4.12225 -3.4362,2.82815 -3.4362,0.91495 v -6.59663 c 0,-0.551231 -0.214,-1.079891 -0.5948,-1.469681 -0.3808,-0.38978 -0.8973,-0.608756 -1.4359,-0.608756 h -4.5499 c -0.6196,-0.04715 -1.2407,0.06861 -1.8043,0.336286 -0.5636,0.26768 -1.051,0.67839 -1.4159,1.19313 0,0 2.3104,-0.38235 2.3104,2.803911 0,0.7901 0.0397,3.06302 0.076,4.96944 0.0068,0.2809 -0.0708,0.5572 -0.2222,0.7916 -0.1515,0.2344 -0.3696,0.4156 -0.6248,0.5191 -0.2553,0.1035 -0.5354,0.1243 -0.8026,0.0597 -0.2672,-0.0647 -0.5086,-0.2116 -0.6916,-0.4211 -1.8623,-2.65117 -3.4049605,-5.52285 -4.5943805,-8.552681 -0.10215,-0.22665 -0.26567,-0.41855 -0.47116,-0.55294 -0.2055,-0.13439 -0.44435,-0.20563 -0.68821,-0.20527 -1.31237,0 -3.93854,0 -5.498135,0 -0.151235,-0.001 -0.30045797,0.03549 -0.43485097,0.10649 -0.134393,0.07099 -0.249937,0.17432 -0.336706,0.30111 -0.086769,0.12679 -0.1421676,0.27324 -0.1614378,0.42677 -0.0192701,0.153541 -0.001835,0.309571 0.0508069,0.454681 C 2.0821435,17.27034 9.2738135,32 17.482414,32 h 3.455 c 0.362,0 0.7091,-0.1472 0.9651,-0.4092 0.256,-0.262 0.3998,-0.6173 0.3998,-0.9879 v -2.1353 c 0,-0.2679 0.0766,-0.5299 0.2203,-0.7538 0.1437,-0.2238 0.3482,-0.3998 0.5884,-0.5061 0.2402,-0.1064 0.5056,-0.1385 0.7634,-0.0924 0.2578,0.0461 0.4968,0.1684 0.6875,0.3518 l 4.1354,3.9769 c 0.3714,0.3571 0.8618,0.556 1.3714,0.556 h 5.4305 c 2.6191,0 2.6191,-1.8602 1.1911,-3.2997 -1.005,-1.013 -4.6314,-4.9254 -4.6314,-4.9254 -0.3105,-0.3293 -0.4958,-0.7614 -0.5222,-1.2183 -0.0264,-0.4569 0.1077,-0.9083 0.3781,-1.2728 1.1722,-1.5789 3.0894,-4.16334 3.9025,-5.2705 1.1114,-1.5133 3.1229,-4.719191 0.3652,-4.719191 z"
     fill="#4c75a1"
     id="path2" />
</svg>
