<svg width="32" height="38" viewBox="0 0 32 38" fill="none" xmlns="http://www.w3.org/2000/svg">
<path d="M31.4465 19.2381C31.0548 17.5321 29.6626 16.2736 27.987 16.0863C24.0201 15.6421 20.0029 15.64 16.0054 15.6421C12.0063 15.64 7.98997 15.6421 4.02174 16.0863C2.34699 16.274 0.955686 17.5325 0.564381 19.2381C0.00668893 21.6675 0 24.3194 0 26.8209C0 29.3223 4.98367e-08 31.9738 0.557692 34.4031C0.948997 36.1088 2.3403 37.3672 4.01589 37.555C7.98328 37.9996 11.9996 38.0013 15.9983 37.9996C19.9975 38.0017 24.013 37.9996 27.9816 37.555C29.6564 37.3672 31.0485 36.1088 31.4398 34.4031C31.9971 31.9738 32 29.3223 32 26.8209C31.9996 24.319 32.0038 21.6675 31.4465 19.2381ZM9.12751 21.121H6.81146V33.4577H4.66012V21.121H2.38629V19.1003H9.12751V21.121ZM14.9707 33.4581H13.0355V32.291C12.2667 33.1744 11.5368 33.6052 10.8257 33.6052C10.2023 33.6052 9.77341 33.3521 9.57985 32.8102C9.4745 32.4867 9.40928 31.9746 9.40928 31.2194V22.76H11.3428V30.6365C11.3428 31.0908 11.3428 31.3267 11.3604 31.3904C11.4068 31.6913 11.5535 31.8439 11.8127 31.8439C12.2007 31.8439 12.6062 31.5442 13.0351 30.9362V22.76H14.9703L14.9707 33.4581ZM22.3173 30.2472C22.3173 31.2366 22.2508 31.9495 22.1217 32.4029C21.8633 33.1987 21.3462 33.6052 20.5769 33.6052C19.8888 33.6052 19.2249 33.2222 18.5782 32.4218V33.4586H16.6446V19.1003H18.5782V23.7893C19.2028 23.0186 19.8658 22.6289 20.5769 22.6289C21.3462 22.6289 21.8637 23.0349 22.1217 23.8358C22.2517 24.2662 22.3173 24.9736 22.3173 25.9865V30.2472ZM29.6154 28.4624H25.7479V30.3587C25.7479 31.3489 26.0711 31.8434 26.7358 31.8434C27.212 31.8434 27.4891 31.584 27.5995 31.0661C27.6175 30.9609 27.643 30.5301 27.643 29.7527H29.6158V30.0356C29.6158 30.6604 29.592 31.0908 29.5744 31.2844C29.5096 31.7135 29.3574 32.1028 29.1229 32.4457C28.5874 33.2226 27.7939 33.6056 26.7839 33.6056C25.7722 33.6056 25.0021 33.2406 24.4431 32.5102C24.033 31.9746 23.8223 31.1314 23.8223 29.9945V26.2476C23.8223 25.1039 24.0092 24.2674 24.4202 23.7268C24.9787 22.9947 25.7483 22.6301 26.7362 22.6301C27.7065 22.6301 28.4758 22.9947 29.0176 23.7268C29.4227 24.2674 29.6162 25.1039 29.6162 26.2476V28.4624H29.6154Z" fill="#FF0000"/>
<path d="M26.7186 24.3743C26.0723 24.3743 25.7483 24.8692 25.7483 25.8582V26.8481H27.6818V25.8582C27.6814 24.8692 27.3582 24.3743 26.7186 24.3743Z" fill="#FF0000"/>
<path d="M19.5422 24.3743C19.2237 24.3743 18.9009 24.5251 18.5778 24.8457V31.3661C18.9005 31.6904 19.2237 31.8438 19.5422 31.8438C20.0999 31.8438 20.3834 31.3661 20.3834 30.4001V25.8339C20.3834 24.8692 20.0999 24.3743 19.5422 24.3743Z" fill="#FF0000"/>
<path d="M20.6225 14.6561C21.3353 14.6561 22.0769 14.2219 22.8549 13.3284V14.5077H24.8093V3.69604H22.8549V11.9593C22.4218 12.5728 22.0113 12.8763 21.6204 12.8763C21.3587 12.8763 21.2048 12.7212 21.1622 12.4174C21.1383 12.3533 21.1383 12.1148 21.1383 11.6559V3.69604H19.1902V12.2451C19.1902 13.0087 19.2554 13.5254 19.3633 13.8527C19.5597 14.4004 19.9933 14.6561 20.6225 14.6561Z" fill="#FF0000"/>
<path d="M7.01676 8.63207V14.5079H9.18399V8.63207L11.791 0H9.59954L8.12086 5.6973L6.5824 0H4.30188C4.75882 1.34481 5.23415 2.69632 5.69109 4.04238C6.38633 6.06566 6.82027 7.59109 7.01676 8.63207Z" fill="#FF0000"/>
<path d="M14.6956 14.656C15.6747 14.656 16.4356 14.2867 16.9753 13.5492C17.3854 13.0082 17.5819 12.1558 17.5819 11.0067V7.22076C17.5819 6.06496 17.3858 5.2201 16.9753 4.67405C16.4356 3.93439 15.6751 3.56519 14.6956 3.56519C13.7215 3.56519 12.9611 3.93439 12.4201 4.67405C12.005 5.2201 11.8085 6.06496 11.8085 7.22076V11.0067C11.8085 12.1558 12.005 13.0082 12.4201 13.5492C12.9606 14.2867 13.7215 14.656 14.6956 14.656ZM13.7629 6.82809C13.7629 5.82776 14.0656 5.32906 14.6956 5.32906C15.3256 5.32906 15.6275 5.82734 15.6275 6.82809V11.3759C15.6275 12.3762 15.3256 12.8766 14.6956 12.8766C14.0656 12.8766 13.7629 12.3762 13.7629 11.3759V6.82809Z" fill="#FF0000"/>
</svg>
