<svg width="38" height="23" viewBox="0 0 38 23" fill="none" xmlns="http://www.w3.org/2000/svg">
<path d="M35.8688 1.88211H29.8173C29.5703 1.88211 29.328 1.95065 29.116 2.08044C28.904 2.21023 28.7304 2.39641 28.6136 2.61916C28.6136 2.61916 26.2001 7.16868 25.4248 8.70105C23.3392 12.8233 21.9886 11.5292 21.9886 9.616V3.01937C21.9886 2.46814 21.7747 1.93948 21.3938 1.54969C21.013 1.15991 20.4965 0.940934 19.9579 0.940934H15.4081C14.7884 0.89378 14.1673 1.00954 13.6037 1.27722C13.0401 1.5449 12.5527 1.95561 12.1878 2.47035C12.1878 2.47035 14.4982 2.088 14.4982 5.27426C14.4982 6.06436 14.538 8.33728 14.5742 10.2437C14.581 10.5246 14.5035 10.8009 14.352 11.0353C14.2005 11.2697 13.9825 11.4509 13.7272 11.5544C13.4719 11.6579 13.1918 11.6787 12.9246 11.6141C12.6574 11.5494 12.416 11.4025 12.233 11.193C10.3707 8.54183 8.82806 5.67015 7.63864 2.64032C7.5365 2.41367 7.37297 2.22177 7.16748 2.08738C6.96198 1.95299 6.72313 1.88175 6.47927 1.88211C5.1669 1.88211 2.54073 1.88211 0.981137 1.88211C0.829903 1.88106 0.680679 1.9176 0.546286 1.9886C0.411893 2.05959 0.296349 2.16292 0.20958 2.28971C0.122812 2.4165 0.0674124 2.56295 0.0481423 2.71648C0.0288721 2.87002 0.046307 3.02605 0.0989492 3.17116C1.76845 7.85834 8.96012 22.588 17.1687 22.588H20.6237C20.9857 22.588 21.3329 22.4408 21.5888 22.1788C21.8448 21.9168 21.9886 21.5615 21.9886 21.1909V19.0556C21.9886 18.7877 22.0652 18.5257 22.2089 18.3018C22.3526 18.078 22.5571 17.902 22.7973 17.7957C23.0375 17.6893 23.3029 17.6572 23.5607 17.7033C23.8185 17.7494 24.0575 17.8717 24.2482 18.0551L28.3836 22.032C28.755 22.3891 29.2454 22.588 29.755 22.588H35.1855C37.8046 22.588 37.8046 20.7278 36.3766 19.2883C35.3717 18.2753 31.7452 14.3629 31.7452 14.3629C31.4347 14.0336 31.2495 13.6015 31.223 13.1446C31.1966 12.6877 31.3307 12.2363 31.6011 11.8718C32.7733 10.2929 34.6905 7.70846 35.5036 6.6013C36.615 5.088 38.6265 1.88211 35.8688 1.88211Z" fill="#43423F"/>
</svg>
