<svg width="38" height="23" viewBox="0 0 38 23" fill="none" xmlns="http://www.w3.org/2000/svg">
<path d="M35.8687 1.88211H29.8172C29.5702 1.88211 29.3279 1.95065 29.1159 2.08044C28.9039 2.21023 28.7303 2.39641 28.6135 2.61916C28.6135 2.61916 26.2 7.16868 25.4247 8.70105C23.3391 12.8233 21.9885 11.5292 21.9885 9.616V3.01937C21.9885 2.46814 21.7745 1.93948 21.3937 1.54969C21.0129 1.15991 20.4964 0.940934 19.9578 0.940934H15.4079C14.7883 0.89378 14.1672 1.00954 13.6036 1.27722C13.04 1.5449 12.5526 1.95561 12.1877 2.47035C12.1877 2.47035 14.4981 2.088 14.4981 5.27426C14.4981 6.06436 14.5378 8.33728 14.5741 10.2437C14.5809 10.5246 14.5033 10.8009 14.3519 11.0353C14.2004 11.2697 13.9823 11.4509 13.7271 11.5544C13.4718 11.6579 13.1917 11.6787 12.9245 11.6141C12.6573 11.5494 12.4159 11.4025 12.2329 11.193C10.3706 8.54183 8.82794 5.67015 7.63852 2.64032C7.53637 2.41367 7.37285 2.22177 7.16736 2.08738C6.96186 1.95299 6.72301 1.88175 6.47915 1.88211C5.16678 1.88211 2.54061 1.88211 0.981015 1.88211C0.82978 1.88106 0.680557 1.9176 0.546164 1.9886C0.411771 2.05959 0.296227 2.16292 0.209458 2.28971C0.122689 2.4165 0.0672904 2.56295 0.0480202 2.71648C0.0287501 2.87002 0.046185 3.02605 0.0988271 3.17116C1.76833 7.85834 8.96 22.588 17.1686 22.588H20.6236C20.9856 22.588 21.3327 22.4408 21.5887 22.1788C21.8447 21.9168 21.9885 21.5615 21.9885 21.1909V19.0556C21.9885 18.7877 22.0651 18.5257 22.2088 18.3018C22.3525 18.078 22.557 17.902 22.7972 17.7957C23.0374 17.6893 23.3028 17.6572 23.5606 17.7033C23.8184 17.7494 24.0574 17.8717 24.2481 18.0551L28.3835 22.032C28.7549 22.3891 29.2453 22.588 29.7549 22.588H35.1854C37.8045 22.588 37.8045 20.7278 36.3765 19.2883C35.3715 18.2753 31.7451 14.3629 31.7451 14.3629C31.4346 14.0336 31.2493 13.6015 31.2229 13.1446C31.1965 12.6877 31.3306 12.2363 31.601 11.8718C32.7732 10.2929 34.6904 7.70846 35.5035 6.6013C36.6149 5.088 38.6264 1.88211 35.8687 1.88211Z" fill="#4C75A1"/>
</svg>
