<svg width="32" height="38" viewBox="0 0 32 38" fill="none" xmlns="http://www.w3.org/2000/svg">
<path d="M31.4465 19.2379C31.0548 17.5319 29.6626 16.2734 27.987 16.0861C24.0201 15.6418 20.0029 15.6397 16.0054 15.6418C12.0063 15.6397 7.98997 15.6418 4.02174 16.0861C2.34699 16.2738 0.955686 17.5323 0.564381 19.2379C0.00668893 21.6673 0 24.3192 0 26.8206C0 29.3221 4.98367e-08 31.9735 0.557692 34.4029C0.948997 36.1085 2.3403 37.367 4.01589 37.5547C7.98328 37.9994 11.9996 38.0011 15.9983 37.9994C19.9975 38.0015 24.013 37.9994 27.9816 37.5547C29.6564 37.367 31.0485 36.1085 31.4398 34.4029C31.9971 31.9735 32 29.3221 32 26.8206C31.9996 24.3187 32.0038 21.6673 31.4465 19.2379ZM9.12751 21.1208H6.81146V33.4575H4.66012V21.1208H2.38629V19.1H9.12751V21.1208ZM14.9707 33.4579H13.0355V32.2908C12.2667 33.1742 11.5368 33.605 10.8257 33.605C10.2023 33.605 9.77341 33.3519 9.57985 32.81C9.4745 32.4865 9.40928 31.9744 9.40928 31.2192V22.7598H11.3428V30.6363C11.3428 31.0905 11.3428 31.3265 11.3604 31.3902C11.4068 31.6911 11.5535 31.8436 11.8127 31.8436C12.2007 31.8436 12.6062 31.544 13.0351 30.9359V22.7598H14.9703L14.9707 33.4579ZM22.3173 30.247C22.3173 31.2364 22.2508 31.9492 22.1217 32.4027C21.8633 33.1985 21.3462 33.605 20.5769 33.605C19.8888 33.605 19.2249 33.222 18.5782 32.4215V33.4583H16.6446V19.1H18.5782V23.789C19.2028 23.0184 19.8658 22.6286 20.5769 22.6286C21.3462 22.6286 21.8637 23.0347 22.1217 23.8356C22.2517 24.2659 22.3173 24.9733 22.3173 25.9862V30.247ZM29.6154 28.4621H25.7479V30.3584C25.7479 31.3487 26.0711 31.8432 26.7358 31.8432C27.212 31.8432 27.4891 31.5838 27.5995 31.0658C27.6175 30.9606 27.643 30.5298 27.643 29.7524H29.6158V30.0353C29.6158 30.6602 29.592 31.0905 29.5744 31.2842C29.5096 31.7133 29.3574 32.1026 29.1229 32.4454C28.5874 33.2224 27.7939 33.6054 26.7839 33.6054C25.7722 33.6054 25.0021 33.2404 24.4431 32.5099C24.033 31.9744 23.8223 31.1312 23.8223 29.9942V26.2473C23.8223 25.1037 24.0092 24.2672 24.4202 23.7266C24.9787 22.9945 25.7483 22.6299 26.7362 22.6299C27.7065 22.6299 28.4758 22.9945 29.0176 23.7266C29.4227 24.2672 29.6162 25.1037 29.6162 26.2473V28.4621H29.6154Z" fill="#43423F"/>
<path d="M26.7186 24.3745C26.0723 24.3745 25.7483 24.8694 25.7483 25.8584V26.8483H27.6818V25.8584C27.6814 24.8694 27.3582 24.3745 26.7186 24.3745Z" fill="#43423F"/>
<path d="M19.5422 24.3745C19.2237 24.3745 18.9009 24.5254 18.5778 24.846V31.3663C18.9005 31.6907 19.2237 31.8441 19.5422 31.8441C20.0999 31.8441 20.3834 31.3663 20.3834 30.4004V25.8341C20.3834 24.8694 20.0999 24.3745 19.5422 24.3745Z" fill="#43423F"/>
<path d="M20.6225 14.6558C21.3353 14.6558 22.0769 14.2217 22.8549 13.3282V14.5075H24.8093V3.6958H22.8549V11.9591C22.4218 12.5726 22.0113 12.876 21.6204 12.876C21.3587 12.876 21.2048 12.721 21.1622 12.4171C21.1383 12.353 21.1383 12.1146 21.1383 11.6557V3.6958H19.1902V12.2449C19.1902 13.0084 19.2554 13.5252 19.3633 13.8525C19.5597 14.4002 19.9933 14.6558 20.6225 14.6558Z" fill="#43423F"/>
<path d="M7.01676 8.63206V14.5079H9.18399V8.63206L11.791 0H9.59954L8.12086 5.6973L6.5824 0H4.30188C4.75882 1.34481 5.23415 2.69632 5.69109 4.04238C6.38633 6.06566 6.82027 7.59109 7.01676 8.63206Z" fill="#43423F"/>
<path d="M14.6956 14.6562C15.6747 14.6562 16.4356 14.287 16.9753 13.5494C17.3854 13.0084 17.5819 12.156 17.5819 11.0069V7.221C17.5819 6.0652 17.3858 5.22035 16.9753 4.6743C16.4356 3.93463 15.6751 3.56543 14.6956 3.56543C13.7215 3.56543 12.9611 3.93463 12.4201 4.6743C12.005 5.22035 11.8085 6.0652 11.8085 7.221V11.0069C11.8085 12.156 12.005 13.0084 12.4201 13.5494C12.9606 14.287 13.7215 14.6562 14.6956 14.6562ZM13.7629 6.82833C13.7629 5.828 14.0656 5.32931 14.6956 5.32931C15.3256 5.32931 15.6275 5.82759 15.6275 6.82833V11.3761C15.6275 12.3764 15.3256 12.8768 14.6956 12.8768C14.0656 12.8768 13.7629 12.3764 13.7629 11.3761V6.82833Z" fill="#43423F"/>
</svg>
