<svg width="26" height="26" viewBox="0 0 26 26" fill="none" xmlns="http://www.w3.org/2000/svg">
<path d="M17.3618 14.17C19.8462 12.87 21.5299 10.4027 21.5299 7.57184C21.5328 3.39592 17.8689 0 13.3704 0C8.86895 0 5.20798 3.39592 5.20798 7.57449C5.20798 10.2965 6.76923 12.6816 9.09687 14.0161C3.83191 15.5549 0 20.1288 0 25.5171C0 25.679 0.019943 25.8382 0.025641 26H1.84046C1.83191 25.8382 1.81481 25.679 1.81481 25.5171C1.81481 19.7998 6.83191 15.1463 13 15.1463C19.1681 15.1463 24.1852 19.7971 24.1852 25.5171C24.1852 25.679 24.1681 25.8382 24.1595 26H25.9744C25.9801 25.8382 26 25.679 26 25.5171C26 20.288 22.3875 15.8388 17.3618 14.17ZM7.01994 7.57449C7.01994 4.3298 9.86895 1.69 13.3675 1.69C16.8689 1.69 19.7151 4.3298 19.7151 7.57449C19.7151 10.8192 16.8689 13.459 13.3675 13.459C9.86895 13.4563 7.01994 10.8192 7.01994 7.57449Z" fill="#43423F"/>
</svg>
