<?xml version="1.0" encoding="UTF-8" standalone="no"?>
<svg
   width="25.989403"
   height="25.983414"
   viewBox="0 0 25.989403 25.983414"
   fill="none"
   version="1.1"
   id="svg4"
   sodipodi:docname="bug-icon.svg"
   inkscape:version="1.1 (c68e22c387, 2021-05-23)"
   xmlns:inkscape="http://www.inkscape.org/namespaces/inkscape"
   xmlns:sodipodi="http://sodipodi.sourceforge.net/DTD/sodipodi-0.dtd"
   xmlns="http://www.w3.org/2000/svg"
   xmlns:svg="http://www.w3.org/2000/svg">
  <defs
     id="defs8" />
  <sodipodi:namedview
     id="namedview6"
     pagecolor="#ffffff"
     bordercolor="#111111"
     borderopacity="1"
     inkscape:pageshadow="0"
     inkscape:pageopacity="0"
     inkscape:pagecheckerboard="1"
     showgrid="false"
     inkscape:zoom="11.313709"
     inkscape:cx="18.252194"
     inkscape:cy="-4.9055533"
     inkscape:window-width="1920"
     inkscape:window-height="1017"
     inkscape:window-x="-8"
     inkscape:window-y="-8"
     inkscape:window-maximized="1"
     inkscape:current-layer="svg4" />
  <path
     d="M 20.478884,25.983152 H 5.4788944 c -0.83451,-2e-4 -1.65796,-0.1909 -2.40754,-0.5577 -0.74958,-0.3668 -1.40548,-0.8999 -1.91769,-1.5588 -0.51220103,-0.6588 -0.86717503,-1.4259 -1.03784103,-2.2428 -0.1706657,-0.8168 -0.15251574,-1.6619 0.053066,-2.4707 L 3.2088844,6.7431608 c 0.05476,-0.221876 0.18385,-0.418305 0.3658,-0.556586 0.18195,-0.1382805 0.40577,-0.2100692 0.6342,-0.2034138 H 20.958884 c 0.2206,-0.010098 0.4383,0.053095 0.6192,0.1797218 0.1809,0.126627 0.3148,0.309565 0.3808,0.520278 l 3.78,12.1599912 c 0.2584,0.8259 0.318,1.7012 0.1737,2.5545 -0.1442,0.8533 -0.4882,1.6604 -1.0037,2.3555 -0.5071,0.698 -1.1738,1.2646 -1.9444,1.6526 -0.7706,0.3879 -1.6229,0.5859 -2.4856,0.5774 z M 4.9588844,7.9831618 l -2.89,11.6499902 c -0.12869,0.514 -0.139,1.0505 -0.03016,1.5691 0.10885,0.5185 0.33402,1.0056 0.65852,1.4245 0.32451,0.4189 0.73988,0.7586 1.2148,0.9936 0.47492,0.2349 0.99699,0.359 1.52684,0.3628 H 20.438884 c 0.5442,9e-4 1.0809,-0.1274 1.5659,-0.3742 0.485,-0.2469 0.9045,-0.6053 1.2241,-1.0458 0.3288,-0.443 0.5482,-0.9575 0.6403,-1.5014 0.0921,-0.544 0.0543,-1.102 -0.1103,-1.6286 l -3.52,-11.4499902 z"
     fill="#43423f"
     id="path2" />
  <g
     style="fill:none"
     id="g19"
     transform="translate(7.5998761)">
    <path
       d="M 9,14 C 8.73478,14 8.48043,13.8946 8.29289,13.7071 8.10536,13.5196 8,13.2652 8,13 V 5 C 8,4.20435 7.68393,3.44129 7.12132,2.87868 6.55871,2.31607 5.79565,2 5,2 4.20435,2 3.44129,2.31607 2.87868,2.87868 2.31607,3.44129 2,4.20435 2,5 v 8 C 2,13.2652 1.89464,13.5196 1.70711,13.7071 1.51957,13.8946 1.26522,14 1,14 0.734784,14 0.48043,13.8946 0.292893,13.7071 0.105357,13.5196 0,13.2652 0,13 V 5 C 0,3.67392 0.526784,2.40215 1.46447,1.46447 2.40215,0.526784 3.67392,0 5,0 6.32608,0 7.59785,0.526784 8.53553,1.46447 9.47322,2.40215 10,3.67392 10,5 v 8 C 10,13.2652 9.89464,13.5196 9.70711,13.7071 9.51957,13.8946 9.26522,14 9,14 Z"
       fill="#43423f"
       id="path10" />
  </g>
</svg>
