<svg width="125" height="61" viewBox="0 0 125 61" fill="none" xmlns="http://www.w3.org/2000/svg">
<path d="M103.621 34.9854V11.9015C103.621 10.4441 102.776 9.24291 101.199 9.24291H96.4129C93.9958 9.24291 93.9919 11.917 93.9919 13.5881C93.9919 11.3957 93.1049 9.24291 90.5223 9.24291H79.5308C78.1281 9.24291 77.1029 9.78288 76.4548 10.8632C75.6646 12.1815 74.8739 13.4997 74.0832 14.8178V11.9015C74.0832 10.4441 73.2392 9.24291 71.6617 9.24291H54.9701C53.5674 9.24291 52.5417 9.78288 51.8941 10.8632L49.5224 14.8178V11.9015C49.5224 10.4441 48.678 9.24291 47.1009 9.24291H35.5717C33.9952 9.24291 33.1507 10.4441 33.1507 11.9015V15.4658C30.7102 11.5949 26.4269 9.24291 21.8179 9.24291H10.6906C9.06374 9.24291 7.74506 10.5485 7.74506 12.1592V42.9543C1.15115 35.582 -0.463995 25.0668 3.61904 16.0872C7.70208 7.10803 16.7238 1.3334 26.6701 1.3334H91.3716C108.947 1.3334 121.158 18.6504 115.103 34.9854H103.621ZM83.457 33.2988C86.9686 27.4434 90.4803 21.588 93.9919 15.7326V34.9854H84.4265C83.1059 34.9854 82.783 34.423 83.457 33.2988ZM17.2435 26.4903V17.8004H21.0442C23.6552 17.8004 25.2357 19.6384 25.2357 22.1456C25.2357 24.6524 23.6552 26.4903 21.0442 26.4903H17.2435ZM91.3716 51.3895H26.6701C23.3544 51.3895 20.3199 50.8086 17.2435 49.5843V30.6407C18.6843 31.88 20.1246 33.1203 21.5654 34.3597C22.6696 35.3103 23.8994 35.6048 25.2538 35.2431C28.5407 34.3655 31.3656 32.2776 33.1507 29.4071V40.3793C33.1507 42.4978 34.2863 43.5574 36.5573 43.5574H49.2621C50.3244 43.5574 51.1537 43.0599 51.75 42.0659C52.699 40.4838 53.6475 38.9022 54.5964 37.3195C55.5298 35.7634 55.1923 34.9854 53.5835 34.9854H42.7126V30.6436H49.2621C50.3244 30.6436 51.1537 30.1461 51.75 29.1523C52.699 27.5705 53.6475 25.9883 54.5964 24.4067C55.5254 22.8573 55.1874 22.0829 53.5835 22.0829H42.7126V17.8004H56.7967V40.8325C56.7967 42.6492 57.4301 43.5574 58.697 43.5574H64.3278C65.5952 43.5574 66.2282 42.6492 66.2282 40.8325V17.8004H82.4666C78.4841 24.4406 74.5022 31.0807 70.5203 37.7209C68.8548 40.4971 68.8099 43.5574 72.6561 43.5574H88.7518C90.0949 43.5574 90.7323 42.8591 91.4624 41.9254C92.1413 41.0569 92.7069 40.125 93.2705 39.1855C93.5108 38.7843 93.7516 38.3829 93.9919 37.982C93.9919 39.1556 94.0002 40.3093 94.2698 41.4704C94.5912 42.8524 95.1475 43.5574 96.6771 43.5574H109.739C104.965 48.5563 98.3216 51.3895 91.3716 51.3895H91.3716ZM123.057 34.9854H116.479C122.47 17.8903 109.648 0.0495605 91.3716 0.0495605H26.6701C15.9556 0.0495605 6.28864 6.41993 2.15335 16.2061C-1.98195 25.9922 0.222698 37.2799 7.74506 44.834V52.9435C7.74506 54.2858 8.20269 55.3015 9.11747 55.989C10.9534 57.3687 12.7893 58.7487 14.6252 60.1278C15.9702 61.1388 17.2435 60.7099 17.2435 58.975V50.9624C20.3277 52.121 23.3715 52.6732 26.6701 52.6732H91.3716C99.0961 52.6732 106.439 49.346 111.487 43.5574H117.307C118.677 43.5574 119.694 43.1241 120.358 42.2575C121.677 40.5371 122.995 38.8175 124.314 37.0975C125.168 35.983 124.383 34.9854 123.057 34.9854" fill="black"/>
</svg>
