<?xml version="1.0" encoding="UTF-8" standalone="no"?>
<!-- Created with Inkscape (http://www.inkscape.org/) -->

<svg
   width="280"
   height="65"
   viewBox="0 0 74.083332 17.197917"
   version="1.1"
   id="svg8"
   inkscape:version="1.1 (c68e22c387, 2021-05-23)"
   sodipodi:docname="mainlogo_full_white.svg"
   xmlns:inkscape="http://www.inkscape.org/namespaces/inkscape"
   xmlns:sodipodi="http://sodipodi.sourceforge.net/DTD/sodipodi-0.dtd"
   xmlns="http://www.w3.org/2000/svg"
   xmlns:svg="http://www.w3.org/2000/svg"
   xmlns:rdf="http://www.w3.org/1999/02/22-rdf-syntax-ns#"
   xmlns:cc="http://creativecommons.org/ns#"
   xmlns:dc="http://purl.org/dc/elements/1.1/">
  <defs
     id="defs2" />
  <sodipodi:namedview
     id="base"
     pagecolor="#ffffff"
     bordercolor="#666666"
     borderopacity="1.0"
     inkscape:pageopacity="0.0"
     inkscape:pageshadow="2"
     inkscape:zoom="3.959798"
     inkscape:cx="90.913729"
     inkscape:cy="49.371206"
     inkscape:document-units="mm"
     inkscape:current-layer="layer1"
     showgrid="false"
     units="px"
     inkscape:window-width="1920"
     inkscape:window-height="1017"
     inkscape:window-x="-8"
     inkscape:window-y="-8"
     inkscape:window-maximized="1"
     inkscape:pagecheckerboard="1" />
  <metadata
     id="metadata5">
    <rdf:RDF>
      <cc:Work
         rdf:about="">
        <dc:format>image/svg+xml</dc:format>
        <dc:type
           rdf:resource="http://purl.org/dc/dcmitype/StillImage" />
      </cc:Work>
    </rdf:RDF>
  </metadata>
  <g
     inkscape:label="Layer 1"
     inkscape:groupmode="layer"
     id="layer1"
     transform="translate(0,-279.80206)">
    <path
       d="m 27.819349,289.98036 v -6.0104 c 0,-0.37946 -0.217687,-0.6922 -0.624229,-0.6922 h -1.23386 c -0.623095,0 -0.624102,0.69623 -0.624102,1.13135 0,-0.57084 -0.228644,-1.13135 -0.894421,-1.13135 h -2.833463 c -0.361598,0 -0.625868,0.14063 -0.792943,0.42189 -0.203712,0.34322 -0.407552,0.68643 -0.611389,1.02964 v -0.75933 c 0,-0.37946 -0.217562,-0.6922 -0.62423,-0.6922 h -4.302885 c -0.361597,0 -0.625993,0.14063 -0.792943,0.42189 l -0.611386,1.02964 v -0.75933 c 0,-0.37946 -0.21769,-0.6922 -0.624233,-0.6922 h -2.972083 c -0.406415,0 -0.6241045,0.31274 -0.6241045,0.6922 v 0.92805 C 9.0239364,283.89014 7.9197617,283.27776 6.731608,283.27776 H 3.8631433 c -0.4193858,0 -0.7593249,0.33994 -0.7593249,0.75932 v 8.01817 c -1.6998269,-1.91953 -2.11619033,-4.65742 -1.0636351,-6.99546 1.0525555,-2.33791 3.3782497,-3.84145 5.9422771,-3.84145 H 24.661684 c 4.530644,0 7.678616,4.50886 6.117661,8.76202 z m -5.197936,-0.43915 c 0.905247,-1.52457 1.810495,-3.04915 2.715745,-4.57371 v 5.01286 h -2.465829 c -0.340442,0 -0.423663,-0.14642 -0.249916,-0.43915 M 5.552394,287.76849 v -2.26262 h 0.9797823 c 0.6730832,0 1.0805073,0.47856 1.0805073,1.13136 0,0.65269 -0.4074241,1.13126 -1.0805073,1.13126 z m 19.10929,6.48302 H 7.9824604 c -0.8547592,0 -1.6369996,-0.15121 -2.4300664,-0.46999 v -4.93239 c 0.3714164,0.32268 0.7427058,0.64561 1.1141222,0.96831 0.2846671,0.24752 0.6016951,0.3242 0.9508253,0.23002 0.8473294,-0.22851 1.5755588,-0.77216 2.035736,-1.51953 v 2.85688 c 0,0.55157 0.292726,0.82746 0.8781795,0.82746 h 3.275134 c 0.273839,0 0.487623,-0.12954 0.641354,-0.38831 0.244629,-0.41194 0.489135,-0.82378 0.733767,-1.23587 0.240599,-0.40515 0.1536,-0.60773 -0.261127,-0.60773 h -2.802363 v -1.13049 h 1.688369 c 0.273839,0 0.487623,-0.12954 0.641354,-0.38828 0.244629,-0.41184 0.489135,-0.8238 0.733767,-1.23562 0.239468,-0.4034 0.152343,-0.60508 -0.261127,-0.60508 h -2.802363 v -1.11502 h 3.630685 v 5.99692 c 0,0.47302 0.163297,0.70948 0.489893,0.70948 h 1.451542 c 0.32672,0 0.489891,-0.23646 0.489891,-0.70948 v -5.99692 h 4.18605 c -1.026619,1.72891 -2.053113,3.45781 -3.079608,5.18673 -0.42933,0.72282 -0.440917,1.51967 0.550578,1.51967 h 4.149283 c 0.346234,0 0.510542,-0.18183 0.698767,-0.42494 0.175005,-0.22613 0.320803,-0.46875 0.466093,-0.71336 0.06195,-0.1045 0.124009,-0.209 0.185962,-0.31339 0,0.30557 0.0022,0.60598 0.07165,0.90828 0.08284,0.35983 0.226254,0.54341 0.620583,0.54341 h 3.36729 c -1.230838,1.30157 -2.943379,2.03924 -4.73499,2.03924 m 8.168129,-4.27115 h -1.695671 c 1.544209,-4.45107 -1.761139,-9.09628 -6.472458,-9.09628 H 7.9824604 c -2.7620754,0 -5.2540871,1.65865 -6.320114,4.20668 -1.0660271,2.54804 -0.4976976,5.48701 1.441472,7.45388 v 2.11153 c 0,0.3495 0.1179706,0.61391 0.3537892,0.79293 0.4732725,0.35922 0.9465436,0.71855 1.4198162,1.07763 0.3467383,0.26325 0.6749702,0.15158 0.6749702,-0.30015 v -2.08623 c 0.7950813,0.30166 1.5797133,0.44543 2.4300664,0.44543 H 24.661684 c 1.991292,0 3.884129,-0.86634 5.18547,-2.37351 h 1.500268 c 0.353162,0 0.615293,-0.11285 0.786647,-0.33845 0.339941,-0.44796 0.679754,-0.89567 1.019694,-1.34351 0.220206,-0.2902 0.01788,-0.54995 -0.323951,-0.54995"
       style="fill:#ffffff;fill-opacity:1;fill-rule:nonzero;stroke:none;stroke-width:0.12590371"
       id="path67"
       inkscape:connector-curvature="0" />
    <g
       aria-label="Россия"
       style="font-style:normal;font-weight:normal;font-size:26.342556px;line-height:1.25;font-family:sans-serif;letter-spacing:0px;word-spacing:0px;fill:#ffffff;fill-opacity:1;stroke:none;stroke-width:0.65856385"
       id="text102"
       transform="matrix(0.19395572,0,0,0.19395572,-0.82468715,239.40598)">
      <path
         d="m 212.47659,213.05581 v 18.7559 h 1.7913 v -8.00814 h 6.1905 c 3.55624,0 5.95341,-1.81764 5.95341,-5.47925 0,-3.50356 -2.39717,-5.26851 -5.90073,-5.26851 z m 1.7913,1.52786 h 5.87439 c 2.68694,0 4.47823,1.18542 4.47823,3.87236 0,2.79231 -2.08106,3.84601 -4.66263,3.84601 h -5.68999 z"
         style="font-style:normal;font-variant:normal;font-weight:300;font-stretch:normal;font-family:HelveticaNeueCyr;-inkscape-font-specification:'HelveticaNeueCyr Light';stroke-width:0.65856385;fill:#ffffff;fill-opacity:1"
         id="path193"
         inkscape:connector-curvature="0" />
      <path
         d="m 234.46892,217.87649 c -3.92504,0 -6.45392,2.81866 -6.45392,7.16518 0,4.37286 2.50254,7.16517 6.45392,7.16517 3.92504,0 6.3749,-2.73962 6.3749,-7.11249 0,-4.42554 -2.4762,-7.21786 -6.3749,-7.21786 z m -0.0263,1.39616 c 2.89768,0 4.74166,2.26546 4.74166,5.79536 0,3.5299 -1.81764,5.76902 -4.68898,5.76902 -2.9767,0 -4.79434,-2.23912 -4.79434,-5.79536 0,-3.50356 1.87032,-5.76902 4.74166,-5.76902 z"
         style="font-style:normal;font-variant:normal;font-weight:300;font-stretch:normal;font-family:HelveticaNeueCyr;-inkscape-font-specification:'HelveticaNeueCyr Light';stroke-width:0.65856385;fill:#ffffff;fill-opacity:1"
         id="path195"
         inkscape:connector-curvature="0" />
      <path
         d="m 254.71688,226.96468 h -1.65958 c -0.34245,2.44985 -1.87032,3.87235 -4.13578,3.87235 -2.73963,0 -4.47824,-2.26546 -4.47824,-5.79536 0,-3.5299 1.7913,-5.79536 4.63629,-5.79536 2.08106,0 3.42453,1.15907 3.84602,3.29282 h 1.68592 c -0.3688,-2.92403 -2.42352,-4.66264 -5.55828,-4.66264 -3.81967,0 -6.32221,2.87134 -6.32221,7.29689 0,4.2675 2.4762,7.03346 6.26952,7.03346 3.26648,0 5.26852,-2.16008 5.71634,-5.24216 z"
         style="font-style:normal;font-variant:normal;font-weight:300;font-stretch:normal;font-family:HelveticaNeueCyr;-inkscape-font-specification:'HelveticaNeueCyr Light';stroke-width:0.65856385;fill:#ffffff;fill-opacity:1"
         id="path197"
         inkscape:connector-curvature="0" />
      <path
         d="m 268.40266,226.96468 h -1.65958 c -0.34245,2.44985 -1.87032,3.87235 -4.13578,3.87235 -2.73963,0 -4.47823,-2.26546 -4.47823,-5.79536 0,-3.5299 1.79129,-5.79536 4.63629,-5.79536 2.08106,0 3.42453,1.15907 3.84601,3.29282 h 1.68592 c -0.36879,-2.92403 -2.42351,-4.66264 -5.55828,-4.66264 -3.81967,0 -6.32221,2.87134 -6.32221,7.29689 0,4.2675 2.4762,7.03346 6.26953,7.03346 3.26648,0 5.26851,-2.16008 5.71633,-5.24216 z"
         style="font-style:normal;font-variant:normal;font-weight:300;font-stretch:normal;font-family:HelveticaNeueCyr;-inkscape-font-specification:'HelveticaNeueCyr Light';stroke-width:0.65856385;fill:#ffffff;fill-opacity:1"
         id="path199"
         inkscape:connector-curvature="0" />
      <path
         d="m 281.74599,231.81171 v -13.54008 h -2.05472 l -7.32323,11.59073 v -11.59073 h -1.65958 v 13.54008 h 2.05472 l 7.32323,-11.59073 v 11.59073 z"
         style="font-style:normal;font-variant:normal;font-weight:300;font-stretch:normal;font-family:HelveticaNeueCyr;-inkscape-font-specification:'HelveticaNeueCyr Light';stroke-width:0.65856385;fill:#ffffff;fill-opacity:1"
         id="path201"
         inkscape:connector-curvature="0" />
      <path
         d="m 295.34163,231.81171 v -13.54008 h -6.84906 c -2.50254,0 -4.10944,1.52787 -4.10944,3.8987 0,2.34449 1.63324,3.74064 4.03041,3.8987 l -5.03143,5.74268 h 2.16009 l 4.76801,-5.69 h 3.37184 v 5.69 z m -1.65958,-12.14392 v 5.05777 h -4.79434 c -1.81764,0 -2.845,-0.94833 -2.845,-2.52889 0,-1.55421 1.02736,-2.52888 2.845,-2.52888 z"
         style="font-style:normal;font-variant:normal;font-weight:300;font-stretch:normal;font-family:HelveticaNeueCyr;-inkscape-font-specification:'HelveticaNeueCyr Light';stroke-width:0.65856385;fill:#ffffff;fill-opacity:1"
         id="path203"
         inkscape:connector-curvature="0" />
    </g>
    <g
       aria-label="официальный"
       style="font-style:normal;font-weight:normal;font-size:26.342556px;line-height:1.25;font-family:sans-serif;letter-spacing:0px;word-spacing:0px;fill:#ffffff;fill-opacity:1;stroke:none;stroke-width:0.65856385"
       id="text102-0"
       transform="matrix(0.19395572,0,0,0.19395572,-0.82468715,239.40598)">
      <path
         d="m 217.60166,243.87472 c -3.92504,0 -6.45392,2.81866 -6.45392,7.16518 0,4.37286 2.50254,7.16517 6.45392,7.16517 3.92504,0 6.3749,-2.73962 6.3749,-7.11249 0,-4.42554 -2.4762,-7.21786 -6.3749,-7.21786 z m -0.0263,1.39616 c 2.89768,0 4.74166,2.26546 4.74166,5.79536 0,3.5299 -1.81764,5.76902 -4.68897,5.76902 -2.97671,0 -4.79435,-2.23912 -4.79435,-5.79536 0,-3.50356 1.87032,-5.76902 4.74166,-5.76902 z"
         style="font-style:normal;font-variant:normal;font-weight:300;font-stretch:normal;font-family:HelveticaNeueCyr;-inkscape-font-specification:'HelveticaNeueCyr Light';stroke-width:0.65856385;fill:#ffffff;fill-opacity:1"
         id="path206"
         inkscape:connector-curvature="0" />
      <path
         d="m 245.0148,251.06624 c 0,-4.74166 -2.00204,-7.2442 -5.29486,-7.2442 -1.47518,0 -2.68694,0.68491 -3.37184,1.84398 h -0.0527 v -6.61198 h -1.65958 v 6.61198 h -0.0527 c -0.68491,-1.15907 -1.89667,-1.84398 -3.37185,-1.84398 -3.29282,0 -5.29486,2.50254 -5.29486,7.2442 0,4.55726 2.42352,7.13883 5.26852,7.13883 1.47518,0 2.79231,-0.76393 3.39819,-1.81763 0.0527,0.0263 0.0527,0 0.0527,0 v 6.45392 l 1.65958,0.0263 v -6.48027 c 0,0 0,0.0263 0.0527,0 0.60588,1.0537 1.923,1.81763 3.39819,1.81763 2.84499,0 5.26851,-2.58157 5.26851,-7.13883 z m -1.65958,0 c 0,4.03041 -1.65958,5.74268 -4.03041,5.74268 -1.71227,0 -3.0294,-1.18542 -3.0294,-2.95037 v -5.74267 c 0,-1.68593 1.31713,-2.89769 3.00305,-2.89769 2.23912,0 4.05676,1.71227 4.05676,5.84805 z m -8.71939,2.79231 c 0,1.76495 -1.31713,2.95037 -3.02939,2.95037 -2.37083,0 -4.03041,-1.71227 -4.03041,-5.74268 0,-4.13578 1.81763,-5.84805 4.05675,-5.84805 1.68592,0 3.00305,1.21176 3.00305,2.89769 z"
         style="font-style:normal;font-variant:normal;font-weight:300;font-stretch:normal;font-family:HelveticaNeueCyr;-inkscape-font-specification:'HelveticaNeueCyr Light';stroke-width:0.65856385;fill:#ffffff;fill-opacity:1"
         id="path208"
         inkscape:connector-curvature="0" />
      <path
         d="m 258.60179,257.80994 v -13.54008 h -2.05472 l -7.32323,11.59073 v -11.59073 h -1.65958 v 13.54008 h 2.05472 l 7.32323,-11.59073 v 11.59073 z"
         style="font-style:normal;font-variant:normal;font-weight:300;font-stretch:normal;font-family:HelveticaNeueCyr;-inkscape-font-specification:'HelveticaNeueCyr Light';stroke-width:0.65856385;fill:#ffffff;fill-opacity:1"
         id="path210"
         inkscape:connector-curvature="0" />
      <path
         d="m 274.54192,262.13012 v -5.71634 h -1.87032 v -12.14392 h -1.65958 v 12.14392 h -7.71837 v -12.14392 h -1.65958 v 13.54008 h 11.24827 v 4.32018 z"
         style="font-style:normal;font-variant:normal;font-weight:300;font-stretch:normal;font-family:HelveticaNeueCyr;-inkscape-font-specification:'HelveticaNeueCyr Light';stroke-width:0.65856385;fill:#ffffff;fill-opacity:1"
         id="path212"
         inkscape:connector-curvature="0" />
      <path
         d="m 287.41396,257.80994 v -13.54008 h -2.05472 l -7.32323,11.59073 v -11.59073 h -1.65958 v 13.54008 h 2.05472 l 7.32323,-11.59073 v 11.59073 z"
         style="font-style:normal;font-variant:normal;font-weight:300;font-stretch:normal;font-family:HelveticaNeueCyr;-inkscape-font-specification:'HelveticaNeueCyr Light';stroke-width:0.65856385;fill:#ffffff;fill-opacity:1"
         id="path214"
         inkscape:connector-curvature="0" />
      <path
         d="m 302.4321,256.46647 c -0.28977,0.079 -0.42148,0.079 -0.63222,0.079 -0.92199,0 -0.89565,-0.55319 -0.89565,-1.36981 v -7.37591 c 0,-2.55523 -1.923,-3.8987 -4.97874,-3.8987 -3.34551,0 -5.3212,1.65958 -5.45291,4.55726 h 1.58055 c 0.21074,-2.18643 1.39616,-3.18745 3.68796,-3.18745 2.16009,0 3.5299,0.68491 3.5299,2.92402 0,0.68491 -0.13171,1.05371 -0.47416,1.29079 -0.65857,0.44782 -1.81764,0.50051 -3.95139,0.71125 -3.3455,0.34245 -5.03142,1.71226 -5.03142,4.18846 0,2.37083 1.65958,3.79333 4.42555,3.79333 2.2918,0 4.00406,-0.94833 5.11045,-2.71328 0,1.2381 0.15806,2.4762 1.76495,2.4762 0.47417,0 0.86931,-0.0527 1.31713,-0.21074 z m -3.16111,-6.03245 v 2.21278 c 0,2.58157 -2.13374,4.16212 -4.60994,4.16212 -1.89667,0 -3.10843,-1.00102 -3.10843,-2.58157 0,-2.21278 2.31815,-2.60791 4.03042,-2.845 1.81763,-0.23708 3.1611,-0.36879 3.68795,-0.94833 z"
         style="font-style:normal;font-variant:normal;font-weight:300;font-stretch:normal;font-family:HelveticaNeueCyr;-inkscape-font-specification:'HelveticaNeueCyr Light';stroke-width:0.65856385;fill:#ffffff;fill-opacity:1"
         id="path216"
         inkscape:connector-curvature="0" />
      <path
         d="m 315.30126,257.80994 v -13.54008 h -8.79841 l -0.26342,8.11351 c -0.10538,3.10842 -0.76394,4.32018 -1.87033,4.32018 -0.39513,0 -1.10638,-0.0527 -1.47518,-0.23708 v 1.34347 c 0.39514,0.15805 0.94833,0.28976 1.44884,0.28976 2.18643,0 3.39819,-1.60689 3.5299,-5.6373 l 0.23709,-6.79638 h 5.53193 v 12.14392 z"
         style="font-style:normal;font-variant:normal;font-weight:300;font-stretch:normal;font-family:HelveticaNeueCyr;-inkscape-font-specification:'HelveticaNeueCyr Light';stroke-width:0.65856385;fill:#ffffff;fill-opacity:1"
         id="path218"
         inkscape:connector-curvature="0" />
      <path
         d="m 318.35988,244.26986 v 13.54008 h 6.79638 c 2.63426,0 4.29384,-1.55421 4.29384,-4.10944 0,-2.55523 -1.68593,-4.10944 -4.29384,-4.10944 h -5.1368 v -5.3212 z m 9.43064,9.43064 c 0,1.76495 -1.13273,2.71328 -3.0294,2.71328 h -4.74166 v -5.42657 h 4.74166 c 1.89667,0 3.0294,0.97468 3.0294,2.71329 z"
         style="font-style:normal;font-variant:normal;font-weight:300;font-stretch:normal;font-family:HelveticaNeueCyr;-inkscape-font-specification:'HelveticaNeueCyr Light';stroke-width:0.65856385;fill:#ffffff;fill-opacity:1"
         id="path220"
         inkscape:connector-curvature="0" />
      <path
         d="m 342.56869,257.80994 v -13.54008 h -1.65958 v 5.76902 h -7.71837 v -5.76902 h -1.65958 v 13.54008 h 1.65958 v -6.3749 h 7.71837 v 6.3749 z"
         style="font-style:normal;font-variant:normal;font-weight:300;font-stretch:normal;font-family:HelveticaNeueCyr;-inkscape-font-specification:'HelveticaNeueCyr Light';stroke-width:0.65856385;fill:#ffffff;fill-opacity:1"
         id="path222"
         inkscape:connector-curvature="0" />
      <path
         d="m 345.6273,244.26986 v 13.54008 h 6.05879 c 2.63426,0 4.29384,-1.55421 4.29384,-4.10944 0,-2.55523 -1.68593,-4.10944 -4.29384,-4.10944 h -4.39921 v -5.3212 z m 8.69305,9.43064 c 0,1.76495 -1.13273,2.71328 -3.0294,2.71328 h -4.00407 v -5.42657 h 4.00407 c 1.89667,0 3.0294,0.97468 3.0294,2.71329 z m 4.21481,-9.43064 v 13.54008 h 1.65958 v -13.54008 z"
         style="font-style:normal;font-variant:normal;font-weight:300;font-stretch:normal;font-family:HelveticaNeueCyr;-inkscape-font-specification:'HelveticaNeueCyr Light';stroke-width:0.65856385;fill:#ffffff;fill-opacity:1"
         id="path224"
         inkscape:connector-curvature="0" />
      <path
         d="m 365.04095,239.00135 c 0.26342,2.21278 1.52787,3.42453 3.7143,3.42453 2.16009,0 3.45087,-1.21175 3.84601,-3.42453 h -1.02736 c -0.26342,1.36981 -1.29078,2.16009 -2.79231,2.16009 -1.55421,0 -2.55523,-0.81662 -2.71328,-2.16009 z m 9.27258,18.80859 v -13.54008 h -2.05472 l -7.32323,11.59073 V 244.26986 H 363.276 v 13.54008 h 2.05472 l 7.32323,-11.59073 v 11.59073 z"
         style="font-style:normal;font-variant:normal;font-weight:300;font-stretch:normal;font-family:HelveticaNeueCyr;-inkscape-font-specification:'HelveticaNeueCyr Light';stroke-width:0.65856385;fill:#ffffff;fill-opacity:1"
         id="path226"
         inkscape:connector-curvature="0" />
    </g>
    <g
       aria-label="дистрибьютор"
       style="font-style:normal;font-weight:normal;font-size:26.342556px;line-height:1.25;font-family:sans-serif;letter-spacing:0px;word-spacing:0px;fill:#ffffff;fill-opacity:1;stroke:none;stroke-width:0.65856385"
       id="text102-0-2"
       transform="matrix(0.19395572,0,0,0.19395572,-0.82468715,239.40598)">
      <path
         d="m 226.16822,288.41762 v -5.71633 h -1.89666 v -12.14392 h -8.8511 v 1.73861 c 0,4.768 -0.55319,7.98179 -1.87032,10.40531 h -1.6069 v 5.71633 h 1.65958 v -4.32018 h 10.90582 v 4.32018 z m -3.55624,-5.71633 h -7.34958 c 1.00102,-1.97569 1.76496,-5.34754 1.76496,-9.85212 v -0.89565 h 5.58462 z"
         style="font-style:normal;font-variant:normal;font-weight:300;font-stretch:normal;font-family:HelveticaNeueCyr;-inkscape-font-specification:'HelveticaNeueCyr Light';stroke-width:0.65856385;fill:#ffffff;fill-opacity:1"
         id="path229"
         inkscape:connector-curvature="0" />
      <path
         d="m 239.04027,284.09744 v -13.54007 h -2.05472 l -7.32323,11.59072 v -11.59072 h -1.65959 v 13.54007 h 2.05472 l 7.32323,-11.59072 v 11.59072 z"
         style="font-style:normal;font-variant:normal;font-weight:300;font-stretch:normal;font-family:HelveticaNeueCyr;-inkscape-font-specification:'HelveticaNeueCyr Light';stroke-width:0.65856385;fill:#ffffff;fill-opacity:1"
         id="path231"
         inkscape:connector-curvature="0" />
      <path
         d="m 253.53155,279.25041 h -1.65958 c -0.34245,2.44986 -1.87032,3.87236 -4.13578,3.87236 -2.73962,0 -4.47823,-2.26546 -4.47823,-5.79536 0,-3.52991 1.79129,-5.79537 4.63629,-5.79537 2.08106,0 3.42453,1.15908 3.84601,3.29282 h 1.68592 c -0.36879,-2.92402 -2.42351,-4.66263 -5.55828,-4.66263 -3.81967,0 -6.32221,2.87134 -6.32221,7.29689 0,4.26749 2.4762,7.03346 6.26953,7.03346 3.26648,0 5.26851,-2.16009 5.71633,-5.24217 z"
         style="font-style:normal;font-variant:normal;font-weight:300;font-stretch:normal;font-family:HelveticaNeueCyr;-inkscape-font-specification:'HelveticaNeueCyr Light';stroke-width:0.65856385;fill:#ffffff;fill-opacity:1"
         id="path233"
         inkscape:connector-curvature="0" />
      <path
         d="m 266.00558,271.95352 v -1.39615 h -11.72244 v 1.39615 h 5.03143 v 12.14392 h 1.65958 v -12.14392 z"
         style="font-style:normal;font-variant:normal;font-weight:300;font-stretch:normal;font-family:HelveticaNeueCyr;-inkscape-font-specification:'HelveticaNeueCyr Light';stroke-width:0.65856385;fill:#ffffff;fill-opacity:1"
         id="path235"
         inkscape:connector-curvature="0" />
      <path
         d="m 269.12346,270.55737 h -1.50152 v 18.59784 h 1.60689 v -7.56031 c 0.92199,1.94935 2.60792,2.92402 4.79435,2.92402 3.63527,0 6.05879,-2.84499 6.05879,-7.13883 0,-4.34652 -2.42352,-7.21786 -6.11148,-7.21786 -2.26546,0 -3.87235,1.00102 -4.84703,3.00305 z m 4.63629,0.97467 c 2.845,0 4.63629,2.29181 4.63629,5.84805 0,3.47722 -1.81763,5.74268 -4.5836,5.74268 -2.845,0 -4.63629,-2.21278 -4.63629,-5.76902 0,-3.63527 1.73861,-5.82171 4.5836,-5.82171 z"
         style="font-style:normal;font-variant:normal;font-weight:300;font-stretch:normal;font-family:HelveticaNeueCyr;-inkscape-font-specification:'HelveticaNeueCyr Light';stroke-width:0.65856385;fill:#ffffff;fill-opacity:1"
         id="path237"
         inkscape:connector-curvature="0" />
      <path
         d="m 293.68049,284.09744 v -13.54007 h -2.05472 l -7.32323,11.59072 v -11.59072 h -1.65958 v 13.54007 h 2.05472 l 7.32323,-11.59072 v 11.59072 z"
         style="font-style:normal;font-variant:normal;font-weight:300;font-stretch:normal;font-family:HelveticaNeueCyr;-inkscape-font-specification:'HelveticaNeueCyr Light';stroke-width:0.65856385;fill:#ffffff;fill-opacity:1"
         id="path239"
         inkscape:connector-curvature="0" />
      <path
         d="m 308.96205,277.43278 c 0,-4.29384 -2.50254,-6.95444 -6.13781,-6.95444 -2.21278,0 -4.13579,1.2381 -5.03143,3.05574 h -0.079 c 0.57954,-4.16213 2.13375,-6.11148 5.18948,-6.32222 l 2.00204,-0.13171 c 2.34448,-0.15805 3.37184,-0.57953 3.66161,-2.18643 h -1.84398 c -0.21074,0.44782 -0.55319,0.63222 -1.94935,0.71125 l -1.26444,0.079 c -2.58157,0.15805 -4.24115,0.89564 -5.45291,2.76596 -1.31712,2.02838 -1.68592,5.24217 -1.68592,7.85009 0,4.18846 1.31713,8.19253 6.29587,8.19253 3.76699,0 6.29587,-2.81865 6.29587,-7.0598 z m -1.65958,0 c 0,3.3455 -1.94935,5.66365 -4.63629,5.66365 -2.68694,0 -4.63629,-2.31815 -4.63629,-5.66365 0,-3.39819 1.92301,-5.55828 4.71532,-5.55828 2.60791,0 4.55726,2.26546 4.55726,5.55828 z"
         style="font-style:normal;font-variant:normal;font-weight:300;font-stretch:normal;font-family:HelveticaNeueCyr;-inkscape-font-specification:'HelveticaNeueCyr Light';stroke-width:0.65856385;fill:#ffffff;fill-opacity:1"
         id="path241"
         inkscape:connector-curvature="0" />
      <path
         d="m 311.45513,270.55737 v 13.54007 h 6.79638 c 2.63425,0 4.29383,-1.55421 4.29383,-4.10944 0,-2.55522 -1.68592,-4.10943 -4.29383,-4.10943 h -5.1368 v -5.3212 z m 9.43063,9.43063 c 0,1.76496 -1.13273,2.71329 -3.02939,2.71329 h -4.74166 v -5.42657 h 4.74166 c 1.89666,0 3.02939,0.97468 3.02939,2.71328 z"
         style="font-style:normal;font-variant:normal;font-weight:300;font-stretch:normal;font-family:HelveticaNeueCyr;-inkscape-font-specification:'HelveticaNeueCyr Light';stroke-width:0.65856385;fill:#ffffff;fill-opacity:1"
         id="path243"
         inkscape:connector-curvature="0" />
      <path
         d="m 335.79565,270.16223 c -3.60893,0 -6.03244,2.39717 -6.40124,6.16416 h -3.10842 v -5.76902 h -1.65958 v 13.54007 h 1.65958 v -6.3749 h 3.05574 c 0.15805,4.13579 2.63425,6.77004 6.45392,6.77004 3.92504,0 6.3749,-2.73962 6.3749,-7.11249 0,-4.42555 -2.4762,-7.21786 -6.3749,-7.21786 z m -0.0263,1.39616 c 2.89768,0 4.74166,2.26546 4.74166,5.79536 0,3.5299 -1.81764,5.76902 -4.68898,5.76902 -2.9767,0 -4.79434,-2.23912 -4.79434,-5.79536 0,-3.50356 1.87032,-5.76902 4.74166,-5.76902 z"
         style="font-style:normal;font-variant:normal;font-weight:300;font-stretch:normal;font-family:HelveticaNeueCyr;-inkscape-font-specification:'HelveticaNeueCyr Light';stroke-width:0.65856385;fill:#ffffff;fill-opacity:1"
         id="path245"
         inkscape:connector-curvature="0" />
      <path
         d="m 354.34574,271.95352 v -1.39615 h -11.72243 v 1.39615 h 5.03142 v 12.14392 h 1.65959 v -12.14392 z"
         style="font-style:normal;font-variant:normal;font-weight:300;font-stretch:normal;font-family:HelveticaNeueCyr;-inkscape-font-specification:'HelveticaNeueCyr Light';stroke-width:0.65856385;fill:#ffffff;fill-opacity:1"
         id="path247"
         inkscape:connector-curvature="0" />
      <path
         d="m 361.18905,270.16223 c -3.92504,0 -6.45393,2.81865 -6.45393,7.16518 0,4.37286 2.50255,7.16517 6.45393,7.16517 3.92504,0 6.3749,-2.73962 6.3749,-7.11249 0,-4.42555 -2.4762,-7.21786 -6.3749,-7.21786 z m -0.0263,1.39616 c 2.89768,0 4.74166,2.26546 4.74166,5.79536 0,3.5299 -1.81764,5.76902 -4.68898,5.76902 -2.97671,0 -4.79434,-2.23912 -4.79434,-5.79536 0,-3.50356 1.87032,-5.76902 4.74166,-5.76902 z"
         style="font-style:normal;font-variant:normal;font-weight:300;font-stretch:normal;font-family:HelveticaNeueCyr;-inkscape-font-specification:'HelveticaNeueCyr Light';stroke-width:0.65856385;fill:#ffffff;fill-opacity:1"
         id="path249"
         inkscape:connector-curvature="0" />
      <path
         d="m 371.66391,270.55737 h -1.50152 v 18.59784 h 1.60689 v -7.56031 c 0.92199,1.94935 2.60792,2.92402 4.79435,2.92402 3.63527,0 6.05879,-2.84499 6.05879,-7.13883 0,-4.34652 -2.42352,-7.21786 -6.11148,-7.21786 -2.26546,0 -3.87235,1.00102 -4.84703,3.00305 z m 4.63629,0.97467 c 2.845,0 4.63629,2.29181 4.63629,5.84805 0,3.47722 -1.81763,5.74268 -4.5836,5.74268 -2.845,0 -4.63629,-2.21278 -4.63629,-5.76902 0,-3.63527 1.73861,-5.82171 4.5836,-5.82171 z"
         style="font-style:normal;font-variant:normal;font-weight:300;font-stretch:normal;font-family:HelveticaNeueCyr;-inkscape-font-specification:'HelveticaNeueCyr Light';stroke-width:0.65856385;fill:#ffffff;fill-opacity:1"
         id="path251"
         inkscape:connector-curvature="0" />
    </g>
  </g>
</svg>
