<svg width="12" height="17" viewBox="0 0 12 17" fill="none" xmlns="http://www.w3.org/2000/svg">
<path d="M5.99978 0.5C2.93822 0.5 0.44751 2.99108 0.44751 6.05271C0.44751 8.9998 5.48518 15.8852 5.69968 16.1768L5.89987 16.4493C5.92328 16.4813 5.96056 16.5 5.99978 16.5C6.0396 16.5 6.07664 16.4813 6.10029 16.4493L6.30036 16.1768C6.51498 15.8852 11.5525 8.9998 11.5525 6.05271C11.5525 2.99108 9.06141 0.5 5.99978 0.5ZM5.99978 4.06374C7.09674 4.06374 7.98875 4.95579 7.98875 6.05271C7.98875 7.14907 7.0967 8.04169 5.99978 8.04169C4.90346 8.04169 4.01081 7.14907 4.01081 6.05271C4.01081 4.95579 4.90342 4.06374 5.99978 4.06374Z" fill="#AEACA0"/>
</svg>
